FILE "RDF - Global Conflict (1994)(Absolute)(US).img" BINARY
  TRACK 01 MODE1/2352
    INDEX 01 00:00:00
  TRACK 02 AUDIO
    PREGAP 00:02:00
    INDEX 01 24:15:21
  TRACK 03 AUDIO
    INDEX 00 26:15:58
    INDEX 01 26:17:58
  TRACK 04 AUDIO
    INDEX 00 28:01:07
    INDEX 01 28:03:07
  TRACK 05 AUDIO
    INDEX 00 29:09:01
    INDEX 01 29:11:01
  TRACK 06 AUDIO
    INDEX 00 30:50:59
    INDEX 01 30:52:59
  TRACK 07 AUDIO
    INDEX 00 33:18:30
    INDEX 01 33:20:30
